<svg xmlns="http://www.w3.org/2000/svg" viewBox="0 0 1200 560" role="img" aria-labelledby="title desc">
<title id="title">Da serra ao horizonte</title>
<desc id="desc">Paisagem em xilogravura na qual montanhas altas se suavizam em chapadas abertas.</desc>
<defs>
  <pattern id="bg" width="18" height="18" patternUnits="userSpaceOnUse"><rect width="18" height="18" fill="#e8dfcd"/><path d="M0 5L18 2M0 13L18 10" stroke="#17140f" stroke-opacity=".04"/></pattern>
  <pattern id="cross" width="10" height="10" patternUnits="userSpaceOnUse" patternTransform="rotate(18)"><line x1="0" y1="0" x2="0" y2="10" stroke="#17140f" stroke-width="2" opacity=".33"/></pattern>
</defs>
<rect width="1200" height="560" fill="url(#bg)"/>
<path d="M0 390L90 249L162 321L248 164L329 294L423 231L518 344L624 304L716 360L811 330L920 361L1015 345L1200 374V560H0Z" fill="url(#cross)"/>
<path d="M0 390L90 249L162 321L248 164L329 294L423 231L518 344L624 304L716 360L811 330L920 361L1015 345L1200 374" fill="none" stroke="#17140f" stroke-width="7" stroke-linejoin="round"/>
<path d="M0 440C183 412 335 425 502 446C689 469 872 460 1200 420" fill="none" stroke="#17140f" stroke-width="2" opacity=".45"/>
<path d="M0 476C185 448 355 463 522 487C720 515 935 496 1200 454" fill="none" stroke="#17140f" stroke-width="2" opacity=".28"/>
<text x="65" y="90" font-family="Arial" font-size="21" font-weight="800" letter-spacing="4" fill="#8a2f20">A PAISAGEM SE ABRE</text>
<text x="65" y="123" font-family="Arial" font-size="16" letter-spacing="1.5" fill="#17140f" opacity=".72">das cumeadas fechadas ao ondear longínquo das chapadas</text>
</svg>
