<svg xmlns="http://www.w3.org/2000/svg" viewBox="0 0 1400 900" role="img" aria-labelledby="title desc">
<title id="title">Terra ignota</title>
<desc id="desc">Mapa conceitual em xilogravura com localidades nas bordas e um vazio central marcado como Terra Ignota.</desc>
<defs>
  <pattern id="paper" width="28" height="28" patternUnits="userSpaceOnUse"><rect width="28" height="28" fill="#e8dfcd"/><path d="M0 8L28 3M0 20L28 15" stroke="#17140f" stroke-opacity=".05"/></pattern>
  <pattern id="edgehatch" width="11" height="11" patternUnits="userSpaceOnUse" patternTransform="rotate(-28)"><line x1="0" y1="0" x2="0" y2="11" stroke="#17140f" stroke-width="2.3" opacity=".34"/></pattern>
  <filter id="rough"><feTurbulence baseFrequency=".012" numOctaves="2" seed="13" result="noise"/><feDisplacementMap in="SourceGraphic" in2="noise" scale="3"/></filter>
</defs>
<rect width="1400" height="900" fill="url(#paper)"/>

<g filter="url(#rough)">
  <path d="M102 210C223 152 347 122 484 137C613 151 691 197 771 191C905 182 1016 111 1288 143L1320 782C1110 815 936 777 794 786C603 799 452 844 121 777Z" fill="url(#edgehatch)" opacity=".48" stroke="#17140f" stroke-width="6"/>
  <path d="M357 275C461 227 611 230 738 260C849 286 932 349 978 441C1015 514 1001 623 927 680C828 756 674 758 544 719C416 681 337 596 313 503C290 410 297 313 357 275Z" fill="#efe8d8" stroke="#17140f" stroke-width="4" stroke-dasharray="12 15"/>

  <path d="M145 357C274 394 327 434 380 501C425 558 472 587 549 602" fill="none" stroke="#17140f" stroke-width="5"/>
  <path d="M1288 278C1154 315 1091 350 1030 411C978 463 927 488 862 496" fill="none" stroke="#17140f" stroke-width="5"/>
  <path d="M1180 704C1055 647 1004 605 955 548" fill="none" stroke="#17140f" stroke-width="4"/>

  <path d="M221 238L253 204L284 239L313 198L342 235" fill="none" stroke="#17140f" stroke-width="6"/>
  <path d="M1055 180L1087 145L1117 178L1145 144L1178 182" fill="none" stroke="#17140f" stroke-width="6"/>
  <path d="M1090 733L1122 699L1155 735L1184 701L1219 741" fill="none" stroke="#17140f" stroke-width="6"/>
</g>

<g fill="#17140f" font-family="Arial, Helvetica, sans-serif">
  <text x="82" y="82" font-size="24" font-weight="800" letter-spacing="5" fill="#8a2f20">TERRA IGNOTA</text>
  <text x="82" y="116" font-size="17" letter-spacing="1.2" opacity=".72">o vazio cartográfico como parte da narrativa</text>

  <circle cx="363" cy="260" r="7"/><text x="381" y="267" font-size="18" font-weight="700" letter-spacing="2">MONTE SANTO</text>
  <circle cx="1012" cy="347" r="7"/><text x="1030" y="354" font-size="18" font-weight="700" letter-spacing="2">JEREMOABO</text>
  <circle cx="944" cy="691" r="7"/><text x="962" y="698" font-size="18" font-weight="700" letter-spacing="2">UAUÁ</text>
  <circle cx="257" cy="648" r="7"/><text x="275" y="655" font-size="18" font-weight="700" letter-spacing="2">CUMBE</text>
  <circle cx="1184" cy="536" r="7"/><text x="1202" y="543" font-size="18" font-weight="700" letter-spacing="2">SÃO FRANCISCO</text>

  <text x="643" y="472" text-anchor="middle" font-family="Georgia, serif" font-size="68" font-style="italic" font-weight="700">terra</text>
  <text x="643" y="542" text-anchor="middle" font-family="Georgia, serif" font-size="68" font-style="italic" font-weight="700">ignota</text>
  <text x="643" y="590" text-anchor="middle" font-size="15" letter-spacing="4" opacity=".65">CLARO · HIATO · RABISCO</text>
</g>

<path d="M596 630C621 602 660 598 687 620" fill="none" stroke="#8a2f20" stroke-width="4" stroke-linecap="round"/>
</svg>
